<?xml version="1.0" encoding="UTF-8"?><svg id="Layer_1" xmlns="http://www.w3.org/2000/svg" viewBox="0 0 1080 1080"><defs><style>.cls-1{fill:#534199;}.cls-1,.cls-2{stroke-width:0px;}.cls-2{fill:#00b2ab;}</style></defs><path class="cls-1" d="M227.96,510.47c-1.33,11.12-2.02,22.54-2.02,34.24,0,126.84,107.98,245.1,241.68,245.1,101.98,0,191.11-63.42,227.96-161.12h-89.13c-27.42,50.56-79.7,79.7-135.41,79.7-72.85,0-135.41-50.56-155.98-129.41h393.37c2.57-16.28,2.57-30,2.57-44.56,0-136.26-106.27-244.25-245.96-244.25-100.87,0-193.49,67.03-226.41,170.72h89.67c25.42-54.22,82.37-89.31,139.32-89.31,76.27,0,147.41,58.28,154.26,138.84h-306.81"/><circle class="cls-2" cx="787.83" cy="723.6" r="66.22"/></svg>